<?xml version="1.0" encoding="UTF-8"?>
<!-- Generated by Pixelmator Pro 4.2 -->
<svg width="483" height="161" viewBox="8 169 483 161" xmlns="http://www.w3.org/2000/svg">
    <g id="Group">
        <clipPath id="clipPath1">
            <path d="M 8 169.333344 L 490.666656 169.333344 L 490.666656 330.666687 L 8 330.666687 Z"/>
        </clipPath>
        <g id="g1" clip-path="url(#clipPath1)">
            <g id="g2">
                <g id="g3">
                    <g id="g4">
                        <path id="Path" fill="#ff8134" fill-opacity="0.4" stroke="none" d="M 62.081356 298.642761 C 52.857395 298.642761 44.758438 296.965668 37.789688 293.621918 C 30.831354 290.262543 25.477188 285.533386 21.727188 279.434418 C 17.977188 273.340668 16.102188 266.330261 16.102188 258.413574 C 16.102188 247.955261 18.518854 238.549011 23.352188 230.184418 C 28.185522 221.825043 34.956356 215.299011 43.664688 210.601074 C 52.37302 205.892761 62.300106 203.538574 73.456352 203.538574 C 81.899063 203.538574 89.383438 205.049011 95.914688 208.059418 C 102.456352 211.059418 107.336563 215.304199 110.560524 220.788574 L 91.873024 235.684418 C 87.425102 228.533386 80.716774 224.955261 71.748024 224.955261 C 65.914688 224.955261 60.774063 226.330261 56.331356 229.080261 C 51.899063 231.830261 48.440731 235.621918 45.956356 240.455261 C 43.46677 245.278168 42.227188 250.694839 42.227188 256.705261 C 42.227188 262.887543 44.227188 267.851074 48.227188 271.601074 C 52.237606 275.340668 57.690731 277.205261 64.581352 277.205261 C 73.289688 277.205261 80.732399 273.684418 86.914688 266.642761 L 102.185524 281.663574 C 97.227188 287.663574 91.435524 291.996918 84.810524 294.663574 C 78.195938 297.314636 70.623024 298.642761 62.081356 298.642761 Z M 107.810524 177.955261 L 87.956352 197.809418 L 66.539688 197.809418 L 52.414688 177.955261 L 68.498024 177.955261 L 78.289688 187.871918 L 90.831352 177.955261 Z M 107.810524 177.955261"/>
                    </g>
                </g>
            </g>
            <g id="g5">
                <g id="g6">
                    <g id="g7">
                        <path id="path1" fill="#ff8134" fill-opacity="0.4" stroke="none" d="M 113.028976 226.017761 L 137.716476 226.017761 L 123.612312 296.809418 L 98.924812 296.809418 Z M 113.028976 226.017761"/>
                    </g>
                </g>
            </g>
            <g id="g8">
                <g id="g9">
                    <g id="g10">
                        <path id="path2" fill="#ff8134" fill-opacity="0.4" stroke="none" d="M 158.874557 297.976074 C 152.775604 297.976074 146.916229 297.319824 141.291229 296.017761 C 135.676651 294.715668 131.306854 293.059418 128.187057 291.059418 L 137.187057 273.684418 C 140.405807 275.684418 144.239151 277.278168 148.687057 278.455261 C 153.129776 279.637543 157.483932 280.226074 161.749557 280.226074 C 169.332901 280.226074 173.124557 278.528168 173.124557 275.121918 C 173.124557 273.736511 172.228729 272.715668 170.437057 272.059418 C 168.645401 271.408386 165.791229 270.778168 161.874557 270.163574 C 156.650604 269.205261 152.358932 268.184418 148.999557 267.101074 C 145.650604 266.007324 142.713104 264.153168 140.187057 261.538574 C 137.671432 258.929199 136.416229 255.267761 136.416229 250.559418 C 136.416229 242.382324 139.916229 236.049011 146.916229 231.559418 C 153.926651 227.075043 163.009979 224.830261 174.166229 224.830261 C 179.207901 224.830261 184.082901 225.330261 188.791229 226.330261 C 193.499557 227.330261 197.588104 228.705261 201.062057 230.455261 L 192.312057 247.830261 C 186.395401 244.262543 179.384979 242.476074 171.291229 242.476074 C 167.457901 242.476074 164.603729 242.976074 162.728729 243.976074 C 160.853729 244.976089 159.916229 246.262543 159.916229 247.830261 C 159.916229 249.220886 160.801651 250.241714 162.582901 250.892761 C 164.374557 251.549011 167.317276 252.267761 171.416229 253.059418 C 176.468307 253.924011 180.671432 254.924011 184.020401 256.059418 C 187.379776 257.184418 190.296432 259.054199 192.770401 261.663574 C 195.254776 264.278168 196.499557 267.851074 196.499557 272.392761 C 196.499557 280.575043 192.968307 286.887543 185.916229 291.330261 C 178.858932 295.762543 169.843307 297.976074 158.874557 297.976074 Z M 158.874557 297.976074"/>
                    </g>
                </g>
            </g>
            <g id="g11">
                <g id="g12">
                    <g id="g13">
                        <path id="path3" fill="#ff8134" fill-opacity="0.4" stroke="none" d="M 227.061432 270.413574 C 226.87915 271.637543 226.790604 272.424011 226.790604 272.767761 C 226.790604 276.783386 228.967682 278.788574 233.332275 278.788574 C 235.676025 278.788574 238.155182 278.090668 240.769775 276.684418 L 243.915604 293.809418 C 239.040604 296.590668 232.899979 297.976074 225.498932 297.976074 C 218.176025 297.976074 212.358307 296.153168 208.040604 292.496918 C 203.733307 288.845886 201.582275 283.746918 201.582275 277.205261 C 201.582275 274.694824 201.801025 272.476074 202.248932 270.559418 L 206.936432 247.163589 L 196.498932 247.163589 L 200.290604 228.621918 L 210.603104 228.621918 L 214.248932 210.205261 L 239.082275 210.205261 L 235.415604 228.621918 L 251.478104 228.621918 L 247.832275 247.163589 L 231.769775 247.163589 Z M 227.061432 270.413574"/>
                    </g>
                </g>
            </g>
            <g id="g14">
                <g id="g15">
                    <g id="g16">
                        <path id="path4" fill="#ff8134" fill-opacity="0.4" stroke="none" d="M 258.144745 226.017761 L 282.832245 226.017761 L 268.728088 296.809418 L 244.040588 296.809418 Z M 258.144745 226.017761"/>
                    </g>
                </g>
            </g>
            <g id="g17">
                <g id="g18">
                    <g id="g19">
                        <path id="path5" fill="#ff8134" fill-opacity="0.4" stroke="none" d="M 380.927856 224.830261 C 388.412231 224.830261 394.417419 226.924011 398.948669 231.101074 C 403.474731 235.283386 405.740356 241.205261 405.740356 248.871918 C 405.740356 251.746918 405.438263 254.663589 404.844513 257.621918 L 397.136169 296.809418 L 372.302856 296.809418 L 379.615356 260.226074 C 379.974731 258.575043 380.157013 256.924011 380.157013 255.267761 C 380.157013 252.132339 379.391388 249.783386 377.865356 248.226089 C 376.334106 246.658386 374.136169 245.871918 371.261169 245.871918 C 363.344513 245.871918 358.334106 250.965668 356.240356 261.142761 L 349.052856 296.809418 L 324.240356 296.809418 L 331.677856 260.226074 C 332.021606 258.757324 332.198669 257.142761 332.198669 255.392761 C 332.198669 252.267761 331.433044 249.903168 329.907013 248.288589 C 328.391388 246.679214 326.198669 245.871918 323.323669 245.871918 C 315.308044 245.871918 310.261169 251.054214 308.177856 261.413574 L 301.115356 296.809418 L 276.302856 296.809418 L 290.407013 226.017761 L 313.927856 226.017761 L 312.490356 233.205261 C 318.323669 227.621918 325.370544 224.830261 333.636169 224.830261 C 338.344513 224.830261 342.563263 225.809418 346.302856 227.767761 C 350.052856 229.726074 352.927856 232.580261 354.927856 236.330261 C 358.245544 232.580261 362.099731 229.726074 366.490356 227.767761 C 370.891388 225.809418 375.703888 224.830261 380.927856 224.830261 Z M 380.927856 224.830261"/>
                    </g>
                </g>
            </g>
            <g id="g20">
                <g id="g21">
                    <g id="g22">
                        <path id="path6" fill="#ff8134" fill-opacity="0.4" stroke="none" d="M 443.621338 297.976074 C 436.131775 297.976074 429.600525 296.653168 424.017181 293.996918 C 418.444275 291.345886 414.131775 287.580261 411.079681 282.705261 C 408.038025 277.830261 406.517181 272.174011 406.517181 265.726074 C 406.517181 257.976074 408.392181 251.012543 412.142181 244.830261 C 415.892181 238.637543 421.069275 233.757324 427.683838 230.184418 C 434.308838 226.616699 441.751556 224.830261 450.017181 224.830261 C 457.517181 224.830261 464.048431 226.163574 469.621338 228.830261 C 475.189056 231.486511 479.496338 235.226074 482.538025 240.059418 C 485.590088 244.892761 487.121338 250.533386 487.121338 256.976074 C 487.121338 264.726074 485.246338 271.715668 481.496338 277.934418 C 477.756775 284.158386 472.600525 289.054199 466.017181 292.621918 C 459.444275 296.194824 451.980713 297.976074 443.621338 297.976074 Z M 445.058838 277.996918 C 450.027588 277.996918 454.079681 276.174011 457.204681 272.517761 C 460.340088 268.851074 461.913025 264.101074 461.913025 258.267761 C 461.913025 254.090668 460.730713 250.783386 458.371338 248.351089 C 456.0224 245.908386 452.756775 244.684418 448.579681 244.684418 C 443.621338 244.684418 439.569275 246.517761 436.433838 250.184418 C 433.308838 253.840668 431.746338 258.621918 431.746338 264.538574 C 431.746338 268.720886 432.918213 272.012543 435.267181 274.413574 C 437.610931 276.804199 440.876556 277.996918 445.058838 277.996918 Z M 445.058838 277.996918"/>
                    </g>
                </g>
            </g>
            <g id="g23">
                <g id="g24">
                    <g id="g25">
                        <path id="path7" fill="#004d40" stroke="none" d="M 62.081356 298.642761 C 52.857395 298.642761 44.758438 296.965668 37.789688 293.621918 C 30.831354 290.262543 25.477188 285.533386 21.727188 279.434418 C 17.977188 273.340668 16.102188 266.330261 16.102188 258.413574 C 16.102188 247.955261 18.518854 238.549011 23.352188 230.184418 C 28.185522 221.825043 34.956356 215.299011 43.664688 210.601074 C 52.37302 205.892761 62.300106 203.538574 73.456352 203.538574 C 81.899063 203.538574 89.383438 205.049011 95.914688 208.059418 C 102.456352 211.059418 107.336563 215.304199 110.560524 220.788574 L 91.873024 235.684418 C 87.425102 228.533386 80.716774 224.955261 71.748024 224.955261 C 65.914688 224.955261 60.774063 226.330261 56.331356 229.080261 C 51.899063 231.830261 48.440731 235.621918 45.956356 240.455261 C 43.46677 245.278168 42.227188 250.694839 42.227188 256.705261 C 42.227188 262.887543 44.227188 267.851074 48.227188 271.601074 C 52.237606 275.340668 57.690731 277.205261 64.581352 277.205261 C 73.289688 277.205261 80.732399 273.684418 86.914688 266.642761 L 102.185524 281.663574 C 97.227188 287.663574 91.435524 291.996918 84.810524 294.663574 C 78.195938 297.314636 70.623024 298.642761 62.081356 298.642761 Z M 107.810524 177.955261 L 87.956352 197.809418 L 66.539688 197.809418 L 52.414688 177.955261 L 68.498024 177.955261 L 78.289688 187.871918 L 90.831352 177.955261 Z M 107.810524 177.955261"/>
                    </g>
                </g>
            </g>
            <g id="g26">
                <g id="g27">
                    <g id="g28">
                        <path id="path8" fill="#004d40" stroke="none" d="M 113.028976 226.017761 L 137.716476 226.017761 L 123.612312 296.809418 L 98.924812 296.809418 Z M 113.028976 226.017761"/>
                    </g>
                </g>
            </g>
            <g id="g29">
                <g id="g30">
                    <g id="g31">
                        <path id="path9" fill="#004d40" stroke="none" d="M 158.874557 297.976074 C 152.775604 297.976074 146.916229 297.319824 141.291229 296.017761 C 135.676651 294.715668 131.306854 293.059418 128.187057 291.059418 L 137.187057 273.684418 C 140.405807 275.684418 144.239151 277.278168 148.687057 278.455261 C 153.129776 279.637543 157.483932 280.226074 161.749557 280.226074 C 169.332901 280.226074 173.124557 278.528168 173.124557 275.121918 C 173.124557 273.736511 172.228729 272.715668 170.437057 272.059418 C 168.645401 271.408386 165.791229 270.778168 161.874557 270.163574 C 156.650604 269.205261 152.358932 268.184418 148.999557 267.101074 C 145.650604 266.007324 142.713104 264.153168 140.187057 261.538574 C 137.671432 258.929199 136.416229 255.267761 136.416229 250.559418 C 136.416229 242.382324 139.916229 236.049011 146.916229 231.559418 C 153.926651 227.075043 163.009979 224.830261 174.166229 224.830261 C 179.207901 224.830261 184.082901 225.330261 188.791229 226.330261 C 193.499557 227.330261 197.588104 228.705261 201.062057 230.455261 L 192.312057 247.830261 C 186.395401 244.262543 179.384979 242.476074 171.291229 242.476074 C 167.457901 242.476074 164.603729 242.976074 162.728729 243.976074 C 160.853729 244.976089 159.916229 246.262543 159.916229 247.830261 C 159.916229 249.220886 160.801651 250.241714 162.582901 250.892761 C 164.374557 251.549011 167.317276 252.267761 171.416229 253.059418 C 176.468307 253.924011 180.671432 254.924011 184.020401 256.059418 C 187.379776 257.184418 190.296432 259.054199 192.770401 261.663574 C 195.254776 264.278168 196.499557 267.851074 196.499557 272.392761 C 196.499557 280.575043 192.968307 286.887543 185.916229 291.330261 C 178.858932 295.762543 169.843307 297.976074 158.874557 297.976074 Z M 158.874557 297.976074"/>
                    </g>
                </g>
            </g>
            <g id="g32">
                <g id="g33">
                    <g id="g34">
                        <path id="path10" fill="#004d40" stroke="none" d="M 227.061432 270.413574 C 226.87915 271.637543 226.790604 272.424011 226.790604 272.767761 C 226.790604 276.783386 228.967682 278.788574 233.332275 278.788574 C 235.676025 278.788574 238.155182 278.090668 240.769775 276.684418 L 243.915604 293.809418 C 239.040604 296.590668 232.899979 297.976074 225.498932 297.976074 C 218.176025 297.976074 212.358307 296.153168 208.040604 292.496918 C 203.733307 288.845886 201.582275 283.746918 201.582275 277.205261 C 201.582275 274.694824 201.801025 272.476074 202.248932 270.559418 L 206.936432 247.163589 L 196.498932 247.163589 L 200.290604 228.621918 L 210.603104 228.621918 L 214.248932 210.205261 L 239.082275 210.205261 L 235.415604 228.621918 L 251.478104 228.621918 L 247.832275 247.163589 L 231.769775 247.163589 Z M 227.061432 270.413574"/>
                    </g>
                </g>
            </g>
            <g id="g35">
                <g id="g36">
                    <g id="g37">
                        <path id="path11" fill="#004d40" stroke="none" d="M 258.144745 226.017761 L 282.832245 226.017761 L 268.728088 296.809418 L 244.040588 296.809418 Z M 258.144745 226.017761"/>
                    </g>
                </g>
            </g>
            <g id="g38">
                <g id="g39">
                    <g id="g40">
                        <path id="path12" fill="#004d40" stroke="none" d="M 380.927856 224.830261 C 388.412231 224.830261 394.417419 226.924011 398.948669 231.101074 C 403.474731 235.283386 405.740356 241.205261 405.740356 248.871918 C 405.740356 251.746918 405.438263 254.663589 404.844513 257.621918 L 397.136169 296.809418 L 372.302856 296.809418 L 379.615356 260.226074 C 379.974731 258.575043 380.157013 256.924011 380.157013 255.267761 C 380.157013 252.132339 379.391388 249.783386 377.865356 248.226089 C 376.334106 246.658386 374.136169 245.871918 371.261169 245.871918 C 363.344513 245.871918 358.334106 250.965668 356.240356 261.142761 L 349.052856 296.809418 L 324.240356 296.809418 L 331.677856 260.226074 C 332.021606 258.757324 332.198669 257.142761 332.198669 255.392761 C 332.198669 252.267761 331.433044 249.903168 329.907013 248.288589 C 328.391388 246.679214 326.198669 245.871918 323.323669 245.871918 C 315.308044 245.871918 310.261169 251.054214 308.177856 261.413574 L 301.115356 296.809418 L 276.302856 296.809418 L 290.407013 226.017761 L 313.927856 226.017761 L 312.490356 233.205261 C 318.323669 227.621918 325.370544 224.830261 333.636169 224.830261 C 338.344513 224.830261 342.563263 225.809418 346.302856 227.767761 C 350.052856 229.726074 352.927856 232.580261 354.927856 236.330261 C 358.245544 232.580261 362.099731 229.726074 366.490356 227.767761 C 370.891388 225.809418 375.703888 224.830261 380.927856 224.830261 Z M 380.927856 224.830261"/>
                    </g>
                </g>
            </g>
            <g id="g41">
                <g id="g42">
                    <g id="g43">
                        <path id="path13" fill="#004d40" stroke="none" d="M 443.621338 297.976074 C 436.131775 297.976074 429.600525 296.653168 424.017181 293.996918 C 418.444275 291.345886 414.131775 287.580261 411.079681 282.705261 C 408.038025 277.830261 406.517181 272.174011 406.517181 265.726074 C 406.517181 257.976074 408.392181 251.012543 412.142181 244.830261 C 415.892181 238.637543 421.069275 233.757324 427.683838 230.184418 C 434.308838 226.616699 441.751556 224.830261 450.017181 224.830261 C 457.517181 224.830261 464.048431 226.163574 469.621338 228.830261 C 475.189056 231.486511 479.496338 235.226074 482.538025 240.059418 C 485.590088 244.892761 487.121338 250.533386 487.121338 256.976074 C 487.121338 264.726074 485.246338 271.715668 481.496338 277.934418 C 477.756775 284.158386 472.600525 289.054199 466.017181 292.621918 C 459.444275 296.194824 451.980713 297.976074 443.621338 297.976074 Z M 445.058838 277.996918 C 450.027588 277.996918 454.079681 276.174011 457.204681 272.517761 C 460.340088 268.851074 461.913025 264.101074 461.913025 258.267761 C 461.913025 254.090668 460.730713 250.783386 458.371338 248.351089 C 456.0224 245.908386 452.756775 244.684418 448.579681 244.684418 C 443.621338 244.684418 439.569275 246.517761 436.433838 250.184418 C 433.308838 253.840668 431.746338 258.621918 431.746338 264.538574 C 431.746338 268.720886 432.918213 272.012543 435.267181 274.413574 C 437.610931 276.804199 440.876556 277.996918 445.058838 277.996918 Z M 445.058838 277.996918"/>
                    </g>
                </g>
            </g>
        </g>
    </g>
    <clipPath id="clipPath2">
        <path d="M 105.333336 180 L 149.333328 180 L 149.333328 224 L 105.333336 224 Z M 105.333336 180"/>
    </clipPath>
    <g id="g44" clip-path="url(#clipPath2)">
        <clipPath id="clipPath3">
            <path d="M 109.192711 177.0625 L 152.708328 183.578125 L 146.1875 227.09375 L 102.671875 220.572937 Z M 109.192711 177.0625"/>
        </clipPath>
        <g id="g45" clip-path="url(#clipPath3)">
            <clipPath id="clipPath4">
                <path d="M 109.192711 177.0625 L 152.708328 183.578125 L 146.1875 227.09375 L 102.671875 220.572937 Z M 109.192711 177.0625"/>
            </clipPath>
            <g id="g46" clip-path="url(#clipPath4)">
                <path id="path14" fill="#004d40" stroke="none" d="M 149.130203 205.114594 C 132.494797 205.666687 129.71875 207.723969 124.3125 223.463562 C 123.755211 206.828125 121.703125 204.052094 105.958336 198.645844 C 122.59375 198.088562 125.375 196.036469 130.78125 180.291687 C 131.333328 196.932312 133.385422 199.708344 149.130203 205.114594 Z M 149.130203 205.114594"/>
            </g>
        </g>
    </g>
    <clipPath id="clipPath5">
        <path d="M 120 194.666687 L 136 194.666687 L 136 209.333344 L 120 209.333344 Z M 120 194.666687"/>
    </clipPath>
    <g id="g47" clip-path="url(#clipPath5)">
        <clipPath id="clipPath6">
            <path d="M 121.442711 193.625 L 136.276047 195.848969 L 134.052078 210.682312 L 119.21875 208.458344 Z M 121.442711 193.625"/>
        </clipPath>
        <g id="g48" clip-path="url(#clipPath6)">
            <clipPath id="clipPath7">
                <path d="M 121.442711 193.625 L 136.276047 195.848969 L 134.052078 210.682312 L 119.21875 208.458344 Z M 121.442711 193.625"/>
            </clipPath>
            <g id="g49" clip-path="url(#clipPath7)">
                <path id="path15" fill="#ffffff" stroke="none" d="M 134.734375 202.963562 C 129.197922 203.145844 128.270828 203.828125 126.473961 209.067719 C 126.286461 203.53125 125.604164 202.609375 120.364586 200.807312 C 125.901039 200.625 126.828125 199.942719 128.625 194.697937 C 128.8125 200.239594 129.494797 201.161469 134.734375 202.963562 Z M 134.734375 202.963562"/>
            </g>
        </g>
    </g>
    <clipPath id="clipPath8">
        <path d="M 252 180 L 296 180 L 296 224 L 252 224 Z M 252 180"/>
    </clipPath>
    <g id="g50" clip-path="url(#clipPath8)">
        <clipPath id="clipPath9">
            <path d="M 255.963547 177.0625 L 299.479156 183.578125 L 292.958344 227.09375 L 249.442703 220.572937 Z M 255.963547 177.0625"/>
        </clipPath>
        <g id="g51" clip-path="url(#clipPath9)">
            <clipPath id="clipPath10">
                <path d="M 255.963547 177.0625 L 299.479156 183.578125 L 292.958344 227.09375 L 249.442703 220.572937 Z M 255.963547 177.0625"/>
            </clipPath>
            <g id="g52" clip-path="url(#clipPath10)">
                <path id="path16" fill="#004d40" stroke="none" d="M 295.901031 205.114594 C 279.265625 205.666687 276.484375 207.723969 271.078125 223.463562 C 270.526031 206.828125 268.46875 204.052094 252.729172 198.645844 C 269.364594 198.088562 272.140625 196.036469 277.546875 180.291687 C 278.104156 196.932312 280.15625 199.708344 295.901031 205.114594 Z M 295.901031 205.114594"/>
            </g>
        </g>
    </g>
    <clipPath id="clipPath11">
        <path d="M 266.666656 194.666687 L 282.666656 194.666687 L 282.666656 209.333344 L 266.666656 209.333344 Z M 266.666656 194.666687"/>
    </clipPath>
    <g id="g53" clip-path="url(#clipPath11)">
        <clipPath id="clipPath12">
            <path d="M 268.208344 193.625 L 283.046875 195.848969 L 280.822906 210.682312 L 265.989594 208.458344 Z M 268.208344 193.625"/>
        </clipPath>
        <g id="g54" clip-path="url(#clipPath12)">
            <clipPath id="clipPath13">
                <path d="M 268.208344 193.625 L 283.046875 195.848969 L 280.822906 210.682312 L 265.989594 208.458344 Z M 268.208344 193.625"/>
            </clipPath>
            <g id="g55" clip-path="url(#clipPath13)">
                <path id="path17" fill="#ffffff" stroke="none" d="M 281.505219 202.963562 C 275.96875 203.145844 275.041656 203.828125 273.239594 209.067719 C 273.057281 203.53125 272.375 202.609375 267.135406 200.807312 C 272.671875 200.625 273.59375 199.942719 275.395844 194.697937 C 275.578125 200.239594 276.265625 201.161469 281.505219 202.963562 Z M 281.505219 202.963562"/>
            </g>
        </g>
    </g>
</svg>
